<?xml version="1.0" encoding="UTF-8"?>
<svg width="24" height="24" version="1.1" viewBox="0 -960 960 960" xml:space="preserve" xmlns="http://www.w3.org/2000/svg" xmlns:xlink="http://www.w3.org/1999/xlink"><defs/><path d="m123.75-80c-28.188 0-52.318-7.8333-72.391-23.5-20.073-15.667-30.109-34.5-30.109-56.5v-182l133.71-117.95 91.093-0.79736-156.69 137.93 788.06 4.2291-139.67-142.98 85.674-0.61233 120.31 120.18v182c0 22-10.036 40.833-30.109 56.5s-44.203 23.5-72.391 23.5zm-34.317-56.035 782.52 1.4097-1.8062-118.06h-780.72z" fill="#898989" stroke-width="4.5277"/><rect x="237.5" y="-951.25" width="487.5" height="625" fill="#1f8fcc"/><rect x="634.92" y="-658.48" width="41.412" height="35.83" fill="#fc0" stroke="#fc0" stroke-width="38.644"/><rect x="549.46" y="-806.17" width="37.393" height="30.561" fill="#fc0" stroke="#fc0" stroke-width="33.913"/><rect x="458.28" y="-831.1" width="39.122" height="31.665" fill="#fc0" stroke="#fc0" stroke-width="35.309"/><rect x="368.38" y="-809.75" width="37.051" height="31.469" fill="#fc0" stroke="#fc0" stroke-width="34.256"/><rect x="300.49" y="-737.01" width="37.193" height="32.237" fill="#fc0" stroke="#fc0" stroke-width="34.738"/><rect x="277.29" y="-653.34" width="39.854" height="34.273" fill="#fc0" stroke="#fc0" stroke-width="37.077"/><rect x="301.65" y="-566.48" width="38.015" height="31.184" fill="#fc0" stroke="#fc0" stroke-width="34.541"/><rect x="370.72" y="-498.03" width="36.739" height="31.157" fill="#fc0" stroke="#fc0" stroke-width="33.942"/><rect x="460.89" y="-472.86" width="36.403" height="32.071" fill="#fc0" stroke="#fc0" stroke-width="34.278"/><rect x="551.13" y="-498.87" width="36.549" height="32.842" fill="#fc0" stroke="#fc0" stroke-width="34.757"/><rect x="619.46" y="-567.42" width="38.638" height="31.806" fill="#fc0" stroke="#fc0" stroke-width="35.168"/><rect x="617.39" y="-741.36" width="38.407" height="29.075" fill="#fc0" stroke="#fc0" stroke-width="33.524"/></svg>
